<svg xmlns="http://www.w3.org/2000/svg" xmlns:xlink="http://www.w3.org/1999/xlink" version="1.1" style="enable-background:new 0 0 313.7 347;" xml:space="preserve" width="347" height="347"><rect id="backgroundrect" width="100%" height="100%" x="0" y="0" fill="none" stroke="none"/>
<style type="text/css">
	.st0{fill:#143156;}
	.st1{fill:#41B878;}
</style>

<g class="currentLayer" style=""><title>Layer 1</title><g id="svg_1" class="">
	<g id="svg_2">
		<path class="st0" d="M57.549998092651364,331.8 v-1.2 c2.6,-0.30000000000000004 3,-0.7000000000000001 2.4,-2.3 c-0.5,-1.6 -1.4,-3.8 -2.3,-6.3 h-8.7 c-0.7000000000000001,1.8 -1.3,3.6 -1.8,5.3 c-0.9,2.6 -0.5,3 2.5,3.3 v1.2 h-8.9 v-1.2 c2.6,-0.4 3.2,-0.6000000000000001 4.6,-4.2 l8.5,-21.6 l1.3,-0.4 c2.5,7.1 5.3,14.9 7.9,22 c1.3,3.5 1.9,3.9 4.5,4.1 v1.2 H57.549998092651364 zM53.549998092651364,309.8 L53.549998092651364,309.8 c-1.4,3.5 -2.7,7.1 -3.9,10.5 h7.6 L53.549998092651364,309.8 z" id="svg_3"/>
		<path class="st0" d="M95.54999809265136,311.3 c-0.30000000000000004,-1.6 -0.6000000000000001,-2.4 -1.1,-3.3 c-0.7000000000000001,-1.1 -1.6,-1.5 -4.7,-1.5 h-3.1 c-1.2,0 -1.3,0.1 -1.3,1.3 v9.8 h4.2 c3.7,0 3.9,-0.4 4.4,-3 h1.2 v7.9 h-1.2 c-0.5,-2.8 -0.7000000000000001,-3.3 -4.4,-3.3 h-4.2 v7.4 c0,3.5 0.30000000000000004,3.8 4.1,4 v1.2 H78.24999809265137 v-1.2 c3.3,-0.2 3.6,-0.5 3.6,-4 v-16.3 c0,-3.6 -0.30000000000000004,-3.8 -3.5,-4 v-1.2 h18.1 c0,1.5 0.2,4.1 0.4,6 L95.54999809265136,311.3 z" id="svg_4"/>
		<path class="st0" d="M125.54999809265136,311.3 c-0.30000000000000004,-1.6 -0.6000000000000001,-2.4 -1.2,-3.3 c-0.7000000000000001,-1.1 -1.6,-1.5 -4.7,-1.5 h-3.1 c-1.2,0 -1.3,0.1 -1.3,1.3 v9.8 h4.2 c3.7,0 3.9,-0.4 4.4,-3 h1.1 v7.9 h-1.1 c-0.5,-2.8 -0.7000000000000001,-3.3 -4.4,-3.3 H115.24999809265137 v7.4 c0,3.5 0.30000000000000004,3.8 4.1,4 v1.2 H108.14999809265137 v-1.2 c3.3,-0.2 3.6,-0.5 3.6,-4 v-16.3 c0,-3.6 -0.30000000000000004,-3.8 -3.5,-4 v-1.2 h18.1 c0,1.5 0.2,4.1 0.4,6 L125.54999809265136,311.3 z" id="svg_5"/>
		<path class="st0" d="M137.94999809265136,331.8 v-1.2 c3.4,-0.2 3.7,-0.5 3.7,-4 v-16.4 c0,-3.5 -0.30000000000000004,-3.7 -3.7,-4 v-1.2 h10.9 v1.2 c-3.4,0.2 -3.7,0.5 -3.7,4 v16.4 c0,3.5 0.30000000000000004,3.7 3.7,4 v1.2 H137.94999809265136 z" id="svg_6"/>
		<path class="st0" d="M188.14999809265137,306.3 c-2.3,0.1 -3.3,0.7000000000000001 -3.4,2.5 c-0.2,1.2 -0.2,3.1 -0.2,6.9 v16.5 h-1.3 l-17.5,-21.5 h-0.1 V321 c0,3.8 0.1,5.7 0.30000000000000004,6.9 c0.2,2.1 1.2,2.6 3.9,2.7 v1.2 h-9.7 v-1.2 c2.4,-0.1 3.4,-0.7000000000000001 3.6,-2.7 c0.1,-1.3 0.2,-3.2 0.2,-7 v-9 c0,-3 -0.1,-3.2 -0.8,-4.1 c-0.8,-1 -1.7000000000000002,-1.3 -3.7,-1.5 v-1.2 h6.1 l17.1,20.6 h0.1 v-10.1 c0,-3.8 -0.2,-5.7 -0.30000000000000004,-6.8 c-0.2,-1.8 -1.2,-2.4 -4,-2.5 v-1.2 h9.7 V306.3 z" id="svg_7"/>
		<path class="st0" d="M198.94999809265136,331.8 v-1.2 c3.4,-0.2 3.7,-0.5 3.7,-4 v-16.4 c0,-3.5 -0.30000000000000004,-3.7 -3.7,-4 v-1.2 h10.9 v1.2 c-3.4,0.2 -3.7,0.5 -3.7,4 v16.4 c0,3.5 0.30000000000000004,3.7 3.7,4 v1.2 H198.94999809265136 z" id="svg_8"/>
		<path class="st1" d="M264.74999809265137,331.8 v-1.2 c2.6,-0.30000000000000004 3,-0.7000000000000001 2.4,-2.3 c-0.5,-1.6 -1.4,-3.8 -2.3,-6.3 H256.24999809265137 c-0.7000000000000001,1.8 -1.3,3.6 -1.8,5.3 c-0.9,2.6 -0.5,3 2.5,3.3 v1.2 h-8.9 v-1.2 c2.6,-0.4 3.2,-0.6000000000000001 4.6,-4.2 l8.5,-21.6 l1.3,-0.4 c2.5,7.1 5.3,14.9 7.9,22 c1.3,3.5 1.8,3.9 4.5,4.1 v1.2 H264.74999809265137 zM260.74999809265137,309.8 L260.74999809265137,309.8 c-1.4,3.5 -2.7,7.1 -3.9,10.5 h7.6 L260.74999809265137,309.8 z" id="svg_9"/>
		<path class="st1" d="M306.0499980926514,306.3 c-2.8,0.30000000000000004 -3.3,0.7000000000000001 -4.9,3.2 c-1.8,3 -3.2,5.4 -5.2,9 c-0.5,1.1 -0.7000000000000001,1.5 -0.7000000000000001,2.6 v5.6 c0,3.4 0.30000000000000004,3.7 4.1,4 v1.2 h-11.6 v-1.2 c3.7,-0.2 4,-0.5 4,-4 v-5.5 c0,-0.8 -0.2,-1.2 -0.9,-2.4 c-1.4,-2.5 -2.9,-5.2 -5.2,-9 c-1.6,-2.8 -2.1,-3.2 -4.6,-3.5 v-1.2 h9.8 v1.2 c-2.9,0.4 -2.8,0.9 -2.1,2.2 c1.7000000000000002,3.3 3.7,6.6 5.5,9.7 c1.5,-2.7 3.7,-6.7 4.9,-9.2 c0.9,-2 0.8,-2.4 -2.4,-2.7 v-1.2 h9.1 V306.3 z" id="svg_10"/>
	</g>
	<g id="svg_11">
		<path class="st0" d="M71.64999809265137,45.3 c15.6,-15.3 41.7,-16.9 71.1,-7.1 c10.5,3.5 21.5,8.4 32.5,14.8 c18.6,10.7 37.5,25.1 55.1,43 c17.1,17.4 30.9,35.9 41.2,54.2 c6.3,-11.1 11.2,-22.1 14.7,-32.7 c-8.4,-15.4 -19.3,-30.4 -32.8,-44.2 c-14,-14.2 -29.5,-25.8 -45.4,-34.5 c-10.7,-5.9 -21.7,-10.4 -32.6,-13.7 c-39.7,-12 -78.8,-6.8 -104.2,18.2 c-24.7,24.3 -31,61.7 -20.9,100.3 c3.3,-9.3 7.6,-18.7 12.8,-27.8 C54.049998092651364,86.4 56.149998092651366,60.5 71.64999809265137,45.3 z" id="svg_12"/>
		<path class="st0" d="M298.64999809265134,145.4 c-3.2,11.3 -7.7,22.8 -13.6,34 c11.2,31.7 10,59.9 -6.4,76.1 c-16.3,16.1 -44.3,17 -75.6,5.5 c-9.6,-3.5 -19.4,-8.1 -29.3,-13.9 c-18.3,-10.6 -36.7,-24.8 -54,-42.3 c-17.7,-18 -32,-37.3 -42.4,-56.2 c-5.7,9.8 -10.4,19.6 -13.9,29.1 c8.6,16.8 20.3,33.2 35,48.1 c14.1,14.4 29.7,26 45.7,34.8 c9.7,5.3 19.5,9.5 29.3,12.7 c40.7,13.2 81.1,8.3 107.1,-17.4 C307.44999809265136,229.4 312.74999809265137,187.5 298.64999809265134,145.4 z" id="svg_13"/>
	</g>
	<g id="svg_14">
		<path class="st1" d="M68.74999809265137,253.9 c-16.2,-16.5 -17,-44.7 -5.3,-76.2 c3.5,-9.5 8.2,-19.2 13.9,-29.1 c10.6,-18.1 24.7,-36.4 42,-53.5 c17.9,-17.6 37,-31.8 55.8,-42.2 c-11.1,-6.3 -22,-11.3 -32.5,-14.8 C126.64999809265137,46.7 110.94999809265137,58 96.74999809265137,72 C83.04999809265136,85.6 71.84999809265136,100.4 63.24999809265137,115.7 c-5.2,9.2 -9.5,18.5 -12.8,27.8 c-14.7,41.9 -10.1,83.9 16.3,110.7 c25.7,26 66,31.6 106.9,19 c-9.8,-3.2 -19.7,-7.4 -29.3,-12.7 C112.84999809265136,271.5 84.84999809265136,270.2 68.74999809265137,253.9 z" id="svg_15"/>
		<path class="st1" d="M279.3499980926514,44.8 c-25,-25.4 -64,-31.3 -103.8,-19.9 c10.9,3.3 21.8,7.8 32.6,13.7 c29.6,-9.3 55.6,-7.4 70.9,8.2 c15.2,15.5 16.9,41.3 7.3,70.5 c-3.5,10.6 -8.4,21.6 -14.7,32.7 c-10.7,18.8 -25.3,37.9 -43.3,55.6 c-17.5,17.2 -36.1,31.1 -54.5,41.4 c9.9,5.8 19.7,10.4 29.3,13.9 c16.2,-8.5 31.9,-19.9 46.2,-34 c14.9,-14.7 26.8,-30.9 35.7,-47.6 c6,-11.2 10.5,-22.6 13.6,-34 C309.3499980926514,107 303.5499980926514,69.4 279.3499980926514,44.8 z" id="svg_16"/>
	</g>
	<g id="svg_17">
		<g id="svg_18">
			<path class="st0" d="M158.14999809265137,182.1 V179 c6.9,-0.9 7.9,-1.8 6.5,-6 c-1.4,-4.3 -3.6,-10.2 -6.1,-17 h-23.4 c-1.8,5 -3.4,9.6 -4.8,14.2 c-2.4,6.9 -1.4,8 6.8,8.8 v3.1 H113.24999809265137 V179 c6.9,-1 8.5,-1.7000000000000002 12.3,-11.3 l22.8,-57.8 l3.4,-1 c6.8,18.9 14.2,39.8 21.2,59 c3.5,9.5 5,10.5 12.1,11.1 v3.1 H158.14999809265137 zM147.34999809265136,123.3 h-0.2 c-3.5,9.5 -7,19 -10.3,28 h20.2 L147.34999809265136,123.3 z" id="svg_19"/>
		</g>
		<path class="st1" d="M212.74999809265137,109 c8,0 10.6,1.3 15.1,4.7 c4.4,3.3 7.3,8.4 7.3,15.9 c0,14.5 -5.5,23.9 -16.4,25.4 c-1.7000000000000002,0.1 -5.6,0.4 -6.8,0.30000000000000004 l-8.1,0 l-0.2,12.9 c0,9.6 1,10.1 11.1,10.8 v3.2 H184.24999809265137 V179 c9,-0.7000000000000001 9.9,-1.6 9.9,-10.9 v-45 c0,-9.9 -0.9,-10.3 -9.2,-10.9 V109 H212.74999809265137 zM203.64999809265137,150.4 c1.7000000000000002,0.1 4.8,-0.1 8.5,-0.1 c7.3,0 16,-6.1 16,-20.4 c0,-12.1 -7.8,-17.3 -17,-17.3 c-3.1,0 -5.5,0.6000000000000001 -6.3,1.4 c-0.9,0.8 -1.2,2.1 -1.2,5.3 V150.4 z" id="svg_20"/>
	</g>
	<path class="st1" d="M231.54999809265138,305.2 c2.9,0 3.9,0.5 5.5,1.7000000000000002 c1.6,1.2 2.7,3.1 2.7,5.8 c0,5.3 -2,8.7 -6,9.3 c-0.6000000000000001,0 -2,0.2 -2.5,0.1 l-2.9,0 l-0.1,4.7 c0,3.5 0.4,3.7 4.1,3.9 v1.1 h-11.1 v-1.1 c3.3,-0.30000000000000004 3.6,-0.6000000000000001 3.6,-4 v-16.4 c0,-3.6 -0.30000000000000004,-3.8 -3.4,-4 v-1.1 H231.54999809265138 zM228.24999809265137,320.2 c0.6000000000000001,0.1 1.7000000000000002,0 3.1,0 c2.7,0 5.8,-2.2 5.8,-7.4 c0,-4.4 -2.8,-6.3 -6.2,-6.3 c-1.1,0 -2,0.2 -2.3,0.5 c-0.30000000000000004,0.30000000000000004 -0.4,0.8 -0.4,1.9 V320.2 z" id="svg_21"/>
	<g id="svg_22">
		<path class="st0" d="M306.24999809265137,28.2 c0,2.5 -0.8,4.6 -2.4,6.3 c-1.6,1.7000000000000002 -3.6,2.6 -5.9,2.6 c-2.3,0 -4.3,-0.9 -5.9,-2.6 c-1.6,-1.7000000000000002 -2.4,-3.8 -2.4,-6.3 c0,-1.4 0.30000000000000004,-2.6 0.8,-3.7 c0.5,-1.2 1.3,-2.2 2.2,-3.1 c1.6,-1.4 3.3,-2 5.3,-2 c1.3,0 2.5,0.30000000000000004 3.5,0.8 c1.5,0.7000000000000001 2.7,1.8 3.6,3.3 C305.74999809265137,24.9 306.24999809265137,26.5 306.24999809265137,28.2 zM297.8499980926514,20.7 c-1.9,0 -3.5,0.7000000000000001 -4.9,2.2 c-1.4,1.5 -2.1,3.3 -2.1,5.3 c0,2.1 0.7000000000000001,3.9 2.1,5.4 c1.4,1.5 3,2.2 5,2.2 c1.9,0 3.6,-0.7000000000000001 5,-2.2 c1.4,-1.5 2,-3.3 2,-5.4 c0,-1.1 -0.30000000000000004,-2.3 -0.8,-3.5 c-0.5,-1.1 -1.2,-2 -2.1,-2.7 C300.74999809265137,21.1 299.3499980926514,20.7 297.8499980926514,20.7 zM298.74999809265137,29.1 l3.1,4.3 h-2.3 l-2.9,-4.1 v4.1 h-1.9 V23.1 h1.9 c1.4,0 2.3,0.30000000000000004 3,0.8 c0.7000000000000001,0.6000000000000001 1,1.4 1,2.3 c0,0.6000000000000001 -0.2,1.2 -0.6000000000000001,1.8 c-0.4,0.5 -0.8,0.9 -1.4,1.1 L298.74999809265137,29.1 zM296.74999809265137,27.7 h0.30000000000000004 c1.3,0 2,-0.5 2,-1.5 c0,-0.9 -0.6000000000000001,-1.4 -1.9,-1.4 h-0.4 V27.7 z" id="svg_23"/>
	</g>
</g></g></svg>